<svg xmlns="http://www.w3.org/2000/svg" viewBox="0 0 300 296" width="300" height="296"><defs><style>.a{fill:#000;}</style></defs><title>arrow_06</title><path class="a" d="M297.23011,134.01989A32.43534,32.43534,0,0,1,300,147.44317a37.28733,37.28733,0,0,1-3.196,14.48864,35.39777,35.39777,0,0,1-8.52273,11.29262L176.42046,285.08523a32.69353,32.69353,0,0,1-15.554,8.94885,36.349,36.349,0,0,1-17.47158,0A34.47239,34.47239,0,0,1,118.892,269.53124a36.34925,36.34925,0,0,1,0-17.47158,35.20064,35.20064,0,0,1,8.94887-15.554l54.75851-54.54545H34.304A34.50666,34.50666,0,0,1,10.0142,171.73295Q.42614,162.14488,0,147.44317q.42614-14.48864,10.0142-24.07669A34.50653,34.50653,0,0,1,34.304,113.1392H182.8125L128.054,58.59375a35.20062,35.20062,0,0,1-8.94886-15.554,36.34979,36.34979,0,0,1,0-17.47159A34.4724,34.4724,0,0,1,143.60795,1.06534a36.34954,36.34954,0,0,1,17.47159,0,35.20062,35.20062,0,0,1,15.554,8.94886L289.55964,122.94034a36.92692,36.92692,0,0,1,7.67047,11.07955" /></svg>